<?xml version="1.0" encoding="UTF-8" standalone="no"?>
<!-- This is a Stata 15.1 generated SVG file (http://www.stata.com) -->

<svg version="1.1" width="5.50in" height="4.00in" viewBox="0 0 3960 2880" xmlns="http://www.w3.org/2000/svg" xmlns:xlink="http://www.w3.org/1999/xlink">
	<desc>Stata Graph - Graph</desc>
	<rect x="0" y="0" width="3960" height="2880" style="fill:#E1E6F0;stroke:none"/>
	<rect x="0.00" y="0.00" width="3959.88" height="2880.00" style="fill:#E1E6F0"/>
	<rect x="2.88" y="2.88" width="3954.12" height="2874.24" style="fill:none;stroke:#E1E6F0;stroke-width:5.76"/>
	<rect x="390.80" y="100.86" width="3468.22" height="2388.33" style="fill:#FFFFFF"/>
	<rect x="393.68" y="103.74" width="3462.46" height="2382.57" style="fill:none;stroke:#FFFFFF;stroke-width:5.76"/>
	<line x1="390.80" y1="1714.86" x2="3859.02" y2="1714.86" style="stroke:#E1E6F0;stroke-width:8.64"/>
	<line x1="390.80" y1="1003.89" x2="3859.02" y2="1003.89" style="stroke:#E1E6F0;stroke-width:8.64"/>
	<line x1="390.80" y1="292.93" x2="3859.02" y2="292.93" style="stroke:#E1E6F0;stroke-width:8.64"/>
	<circle cx="1660.72" cy="1843.07" r="26.35" style="fill:#273F6F"/>
	<circle cx="1660.72" cy="1843.07" r="22.03" style="fill:none;stroke:#273F6F;stroke-width:8.64"/>
	<circle cx="2093.97" cy="1750.62" r="26.35" style="fill:#273F6F"/>
	<circle cx="2093.97" cy="1750.62" r="22.03" style="fill:none;stroke:#273F6F;stroke-width:8.64"/>
	<circle cx="1361.62" cy="1885.76" r="26.35" style="fill:#273F6F"/>
	<circle cx="1361.62" cy="1885.76" r="22.03" style="fill:none;stroke:#273F6F;stroke-width:8.64"/>
	<circle cx="1990.77" cy="1741.09" r="26.35" style="fill:#273F6F"/>
	<circle cx="1990.77" cy="1741.09" r="22.03" style="fill:none;stroke:#273F6F;stroke-width:8.64"/>
	<circle cx="2846.87" cy="1313.03" r="26.35" style="fill:#273F6F"/>
	<circle cx="2846.87" cy="1313.03" r="22.03" style="fill:none;stroke:#273F6F;stroke-width:8.64"/>
	<circle cx="2424.01" cy="1602.86" r="26.35" style="fill:#273F6F"/>
	<circle cx="2424.01" cy="1602.86" r="22.03" style="fill:none;stroke:#273F6F;stroke-width:8.64"/>
	<circle cx="938.77" cy="1792.70" r="26.35" style="fill:#273F6F"/>
	<circle cx="938.77" cy="1792.70" r="22.03" style="fill:none;stroke:#273F6F;stroke-width:8.64"/>
	<circle cx="2021.70" cy="1688.13" r="26.35" style="fill:#273F6F"/>
	<circle cx="2021.70" cy="1688.13" r="22.03" style="fill:none;stroke:#273F6F;stroke-width:8.64"/>
	<circle cx="2640.58" cy="951.05" r="26.35" style="fill:#273F6F"/>
	<circle cx="2640.58" cy="951.05" r="22.03" style="fill:none;stroke:#273F6F;stroke-width:8.64"/>
	<circle cx="2145.45" cy="1845.54" r="26.35" style="fill:#273F6F"/>
	<circle cx="2145.45" cy="1845.54" r="22.03" style="fill:none;stroke:#273F6F;stroke-width:8.64"/>
	<circle cx="3104.64" cy="807.12" r="26.35" style="fill:#273F6F"/>
	<circle cx="3104.64" cy="807.12" r="22.03" style="fill:none;stroke:#273F6F;stroke-width:8.64"/>
	<circle cx="2661.12" cy="364.08" r="26.35" style="fill:#273F6F"/>
	<circle cx="2661.12" cy="364.08" r="22.03" style="fill:none;stroke:#273F6F;stroke-width:8.64"/>
	<circle cx="3063.43" cy="164.22" r="26.35" style="fill:#273F6F"/>
	<circle cx="3063.43" cy="164.22" r="22.03" style="fill:none;stroke:#273F6F;stroke-width:8.64"/>
	<circle cx="815.02" cy="1956.80" r="26.35" style="fill:#273F6F"/>
	<circle cx="815.02" cy="1956.80" r="22.03" style="fill:none;stroke:#273F6F;stroke-width:8.64"/>
	<circle cx="2444.56" cy="1614.74" r="26.35" style="fill:#273F6F"/>
	<circle cx="2444.56" cy="1614.74" r="22.03" style="fill:none;stroke:#273F6F;stroke-width:8.64"/>
	<circle cx="1918.62" cy="1785.52" r="26.35" style="fill:#273F6F"/>
	<circle cx="1918.62" cy="1785.52" r="22.03" style="fill:none;stroke:#273F6F;stroke-width:8.64"/>
	<circle cx="1959.83" cy="1700.13" r="26.35" style="fill:#273F6F"/>
	<circle cx="1959.83" cy="1700.13" r="22.03" style="fill:none;stroke:#273F6F;stroke-width:8.64"/>
	<circle cx="1475.10" cy="1904.45" r="26.35" style="fill:#273F6F"/>
	<circle cx="1475.10" cy="1904.45" r="22.03" style="fill:none;stroke:#273F6F;stroke-width:8.64"/>
	<circle cx="2176.39" cy="1863.49" r="26.35" style="fill:#273F6F"/>
	<circle cx="2176.39" cy="1863.49" r="22.03" style="fill:none;stroke:#273F6F;stroke-width:8.64"/>
	<circle cx="825.41" cy="1859.40" r="26.35" style="fill:#273F6F"/>
	<circle cx="825.41" cy="1859.40" r="22.03" style="fill:none;stroke:#273F6F;stroke-width:8.64"/>
	<circle cx="2351.74" cy="1855.69" r="26.35" style="fill:#273F6F"/>
	<circle cx="2351.74" cy="1855.69" r="22.03" style="fill:none;stroke:#273F6F;stroke-width:8.64"/>
	<circle cx="2351.74" cy="1589.00" r="26.35" style="fill:#273F6F"/>
	<circle cx="2351.74" cy="1589.00" r="22.03" style="fill:none;stroke:#273F6F;stroke-width:8.64"/>
	<circle cx="2496.16" cy="1524.15" r="26.35" style="fill:#273F6F"/>
	<circle cx="2496.16" cy="1524.15" r="22.03" style="fill:none;stroke:#273F6F;stroke-width:8.64"/>
	<circle cx="495.37" cy="1801.86" r="26.35" style="fill:#273F6F"/>
	<circle cx="495.37" cy="1801.86" r="22.03" style="fill:none;stroke:#273F6F;stroke-width:8.64"/>
	<circle cx="1372.02" cy="1830.57" r="26.35" style="fill:#273F6F"/>
	<circle cx="1372.02" cy="1830.57" r="22.03" style="fill:none;stroke:#273F6F;stroke-width:8.64"/>
	<circle cx="3630.70" cy="791.16" r="26.35" style="fill:#273F6F"/>
	<circle cx="3630.70" cy="791.16" r="22.03" style="fill:none;stroke:#273F6F;stroke-width:8.64"/>
	<circle cx="3506.83" cy="492.91" r="26.35" style="fill:#273F6F"/>
	<circle cx="3506.83" cy="492.91" r="22.03" style="fill:none;stroke:#273F6F;stroke-width:8.64"/>
	<circle cx="2588.97" cy="511.23" r="26.35" style="fill:#273F6F"/>
	<circle cx="2588.97" cy="511.23" r="22.03" style="fill:none;stroke:#273F6F;stroke-width:8.64"/>
	<circle cx="1299.75" cy="1881.43" r="26.35" style="fill:#273F6F"/>
	<circle cx="1299.75" cy="1881.43" r="22.03" style="fill:none;stroke:#273F6F;stroke-width:8.64"/>
	<circle cx="2826.20" cy="1661.02" r="26.35" style="fill:#273F6F"/>
	<circle cx="2826.20" cy="1661.02" r="22.03" style="fill:none;stroke:#273F6F;stroke-width:8.64"/>
	<circle cx="2475.49" cy="1549.27" r="26.35" style="fill:#273F6F"/>
	<circle cx="2475.49" cy="1549.27" r="22.03" style="fill:none;stroke:#273F6F;stroke-width:8.64"/>
	<circle cx="2114.52" cy="1783.79" r="26.35" style="fill:#273F6F"/>
	<circle cx="2114.52" cy="1783.79" r="22.03" style="fill:none;stroke:#273F6F;stroke-width:8.64"/>
	<circle cx="2898.35" cy="1529.72" r="26.35" style="fill:#273F6F"/>
	<circle cx="2898.35" cy="1529.72" r="22.03" style="fill:none;stroke:#273F6F;stroke-width:8.64"/>
	<circle cx="1557.64" cy="1957.91" r="26.35" style="fill:#273F6F"/>
	<circle cx="1557.64" cy="1957.91" r="22.03" style="fill:none;stroke:#273F6F;stroke-width:8.64"/>
	<circle cx="2826.20" cy="1172.69" r="26.35" style="fill:#273F6F"/>
	<circle cx="2826.20" cy="1172.69" r="22.03" style="fill:none;stroke:#273F6F;stroke-width:8.64"/>
	<circle cx="2052.64" cy="1690.48" r="26.35" style="fill:#273F6F"/>
	<circle cx="2052.64" cy="1690.48" r="22.03" style="fill:none;stroke:#273F6F;stroke-width:8.64"/>
	<circle cx="2042.37" cy="1752.97" r="26.35" style="fill:#273F6F"/>
	<circle cx="2042.37" cy="1752.97" r="22.03" style="fill:none;stroke:#273F6F;stroke-width:8.64"/>
	<circle cx="2444.56" cy="1730.57" r="26.35" style="fill:#273F6F"/>
	<circle cx="2444.56" cy="1730.57" r="22.03" style="fill:none;stroke:#273F6F;stroke-width:8.64"/>
	<circle cx="2114.52" cy="1831.43" r="26.35" style="fill:#273F6F"/>
	<circle cx="2114.52" cy="1831.43" r="22.03" style="fill:none;stroke:#273F6F;stroke-width:8.64"/>
	<circle cx="1454.43" cy="1829.45" r="26.35" style="fill:#273F6F"/>
	<circle cx="1454.43" cy="1829.45" r="22.03" style="fill:none;stroke:#273F6F;stroke-width:8.64"/>
	<circle cx="2795.26" cy="951.30" r="26.35" style="fill:#273F6F"/>
	<circle cx="2795.26" cy="951.30" r="22.03" style="fill:none;stroke:#273F6F;stroke-width:8.64"/>
	<circle cx="2001.16" cy="1765.10" r="26.35" style="fill:#273F6F"/>
	<circle cx="2001.16" cy="1765.10" r="22.03" style="fill:none;stroke:#273F6F;stroke-width:8.64"/>
	<circle cx="495.37" cy="1796.66" r="26.35" style="fill:#273F6F"/>
	<circle cx="495.37" cy="1796.66" r="22.03" style="fill:none;stroke:#273F6F;stroke-width:8.64"/>
	<circle cx="907.83" cy="1788.61" r="26.35" style="fill:#273F6F"/>
	<circle cx="907.83" cy="1788.61" r="22.03" style="fill:none;stroke:#273F6F;stroke-width:8.64"/>
	<circle cx="1237.87" cy="1503.61" r="26.35" style="fill:#273F6F"/>
	<circle cx="1237.87" cy="1503.61" r="22.03" style="fill:none;stroke:#273F6F;stroke-width:8.64"/>
	<circle cx="2073.31" cy="1848.64" r="26.35" style="fill:#273F6F"/>
	<circle cx="2073.31" cy="1848.64" r="22.03" style="fill:none;stroke:#273F6F;stroke-width:8.64"/>
	<circle cx="2454.95" cy="1601.50" r="26.35" style="fill:#273F6F"/>
	<circle cx="2454.95" cy="1601.50" r="22.03" style="fill:none;stroke:#273F6F;stroke-width:8.64"/>
	<circle cx="2217.72" cy="1724.39" r="26.35" style="fill:#273F6F"/>
	<circle cx="2217.72" cy="1724.39" r="22.03" style="fill:none;stroke:#273F6F;stroke-width:8.64"/>
	<circle cx="1949.56" cy="1683.42" r="26.35" style="fill:#273F6F"/>
	<circle cx="1949.56" cy="1683.42" r="22.03" style="fill:none;stroke:#273F6F;stroke-width:8.64"/>
	<circle cx="1939.29" cy="1754.33" r="26.35" style="fill:#273F6F"/>
	<circle cx="1939.29" cy="1754.33" r="22.03" style="fill:none;stroke:#273F6F;stroke-width:8.64"/>
	<circle cx="2166.12" cy="1796.91" r="26.35" style="fill:#273F6F"/>
	<circle cx="2166.12" cy="1796.91" r="22.03" style="fill:none;stroke:#273F6F;stroke-width:8.64"/>
	<circle cx="1413.22" cy="1832.67" r="26.35" style="fill:#273F6F"/>
	<circle cx="1413.22" cy="1832.67" r="22.03" style="fill:none;stroke:#273F6F;stroke-width:8.64"/>
	<circle cx="1557.64" cy="1048.07" r="26.35" style="fill:#273F6F"/>
	<circle cx="1557.64" cy="1048.07" r="22.03" style="fill:none;stroke:#273F6F;stroke-width:8.64"/>
	<circle cx="773.81" cy="1530.84" r="26.35" style="fill:#273F6F"/>
	<circle cx="773.81" cy="1530.84" r="22.03" style="fill:none;stroke:#273F6F;stroke-width:8.64"/>
	<circle cx="1372.02" cy="1041.64" r="26.35" style="fill:#273F6F"/>
	<circle cx="1372.02" cy="1041.64" r="22.03" style="fill:none;stroke:#273F6F;stroke-width:8.64"/>
	<circle cx="1083.18" cy="1540.24" r="26.35" style="fill:#273F6F"/>
	<circle cx="1083.18" cy="1540.24" r="22.03" style="fill:none;stroke:#273F6F;stroke-width:8.64"/>
	<circle cx="722.21" cy="1773.39" r="26.35" style="fill:#273F6F"/>
	<circle cx="722.21" cy="1773.39" r="22.03" style="fill:none;stroke:#273F6F;stroke-width:8.64"/>
	<circle cx="990.37" cy="1703.72" r="26.35" style="fill:#273F6F"/>
	<circle cx="990.37" cy="1703.72" r="22.03" style="fill:none;stroke:#273F6F;stroke-width:8.64"/>
	<circle cx="1475.10" cy="1270.09" r="26.35" style="fill:#273F6F"/>
	<circle cx="1475.10" cy="1270.09" r="22.03" style="fill:none;stroke:#273F6F;stroke-width:8.64"/>
	<circle cx="835.68" cy="1815.10" r="26.35" style="fill:#273F6F"/>
	<circle cx="835.68" cy="1815.10" r="22.03" style="fill:none;stroke:#273F6F;stroke-width:8.64"/>
	<circle cx="949.16" cy="1601.38" r="26.35" style="fill:#273F6F"/>
	<circle cx="949.16" cy="1601.38" r="22.03" style="fill:none;stroke:#273F6F;stroke-width:8.64"/>
	<circle cx="454.04" cy="1786.14" r="26.35" style="fill:#273F6F"/>
	<circle cx="454.04" cy="1786.14" r="22.03" style="fill:none;stroke:#273F6F;stroke-width:8.64"/>
	<circle cx="681.00" cy="1857.92" r="26.35" style="fill:#273F6F"/>
	<circle cx="681.00" cy="1857.92" r="22.03" style="fill:none;stroke:#273F6F;stroke-width:8.64"/>
	<circle cx="2166.12" cy="578.80" r="26.35" style="fill:#273F6F"/>
	<circle cx="2166.12" cy="578.80" r="22.03" style="fill:none;stroke:#273F6F;stroke-width:8.64"/>
	<circle cx="526.31" cy="1872.02" r="26.35" style="fill:#273F6F"/>
	<circle cx="526.31" cy="1872.02" r="22.03" style="fill:none;stroke:#273F6F;stroke-width:8.64"/>
	<circle cx="753.14" cy="1885.89" r="26.35" style="fill:#273F6F"/>
	<circle cx="753.14" cy="1885.89" r="22.03" style="fill:none;stroke:#273F6F;stroke-width:8.64"/>
	<circle cx="1124.52" cy="1587.14" r="26.35" style="fill:#273F6F"/>
	<circle cx="1124.52" cy="1587.14" r="22.03" style="fill:none;stroke:#273F6F;stroke-width:8.64"/>
	<circle cx="907.83" cy="1892.94" r="26.35" style="fill:#273F6F"/>
	<circle cx="907.83" cy="1892.94" r="22.03" style="fill:none;stroke:#273F6F;stroke-width:8.64"/>
	<circle cx="1392.56" cy="1612.76" r="26.35" style="fill:#273F6F"/>
	<circle cx="1392.56" cy="1612.76" r="22.03" style="fill:none;stroke:#273F6F;stroke-width:8.64"/>
	<circle cx="866.62" cy="1410.67" r="26.35" style="fill:#273F6F"/>
	<circle cx="866.62" cy="1410.67" r="22.03" style="fill:none;stroke:#273F6F;stroke-width:8.64"/>
	<circle cx="742.87" cy="1658.55" r="26.35" style="fill:#273F6F"/>
	<circle cx="742.87" cy="1658.55" r="22.03" style="fill:none;stroke:#273F6F;stroke-width:8.64"/>
	<circle cx="629.39" cy="1758.05" r="26.35" style="fill:#273F6F"/>
	<circle cx="629.39" cy="1758.05" r="22.03" style="fill:none;stroke:#273F6F;stroke-width:8.64"/>
	<circle cx="691.27" cy="1451.88" r="26.35" style="fill:#273F6F"/>
	<circle cx="691.27" cy="1451.88" r="22.03" style="fill:none;stroke:#273F6F;stroke-width:8.64"/>
	<circle cx="1908.22" cy="720.37" r="26.35" style="fill:#273F6F"/>
	<circle cx="1908.22" cy="720.37" r="22.03" style="fill:none;stroke:#273F6F;stroke-width:8.64"/>
	<line x1="390.80" y1="2489.19" x2="390.80" y2="100.86" style="stroke:#000000;stroke-width:5.76"/>
	<line x1="390.80" y1="2425.82" x2="350.83" y2="2425.82" style="stroke:#000000;stroke-width:5.76"/>
	<text x="300.72" y="2425.82" style="font-family:'Helvetica';font-size:99.99px;fill:#000000" transform="rotate(-90 300.72,2425.82)" text-anchor="middle">0</text>
	<line x1="390.80" y1="1714.86" x2="350.83" y2="1714.86" style="stroke:#000000;stroke-width:5.76"/>
	<text x="300.72" y="1714.86" style="font-family:'Helvetica';font-size:99.99px;fill:#000000" transform="rotate(-90 300.72,1714.86)" text-anchor="middle">5,000</text>
	<line x1="390.80" y1="1003.89" x2="350.83" y2="1003.89" style="stroke:#000000;stroke-width:5.76"/>
	<text x="300.72" y="1003.89" style="font-family:'Helvetica';font-size:99.99px;fill:#000000" transform="rotate(-90 300.72,1003.89)" text-anchor="middle">10,000</text>
	<line x1="390.80" y1="292.93" x2="350.83" y2="292.93" style="stroke:#000000;stroke-width:5.76"/>
	<text x="300.72" y="292.93" style="font-family:'Helvetica';font-size:99.99px;fill:#000000" transform="rotate(-90 300.72,292.93)" text-anchor="middle">15,000</text>
	<text x="190.71" y="1294.96" style="font-family:'Helvetica';font-size:99.99px;fill:#000000" transform="rotate(-90 190.71,1294.96)" text-anchor="middle">Price</text>
	<line x1="390.80" y1="2489.19" x2="3859.02" y2="2489.19" style="stroke:#000000;stroke-width:5.76"/>
	<line x1="701.66" y1="2489.19" x2="701.66" y2="2529.16" style="stroke:#000000;stroke-width:5.76"/>
	<text x="701.66" y="2619.14" style="font-family:'Helvetica';font-size:99.99px;fill:#000000" text-anchor="middle">2,000</text>
	<line x1="1732.99" y1="2489.19" x2="1732.99" y2="2529.16" style="stroke:#000000;stroke-width:5.76"/>
	<text x="1732.99" y="2619.14" style="font-family:'Helvetica';font-size:99.99px;fill:#000000" text-anchor="middle">3,000</text>
	<line x1="2764.33" y1="2489.19" x2="2764.33" y2="2529.16" style="stroke:#000000;stroke-width:5.76"/>
	<text x="2764.33" y="2619.14" style="font-family:'Helvetica';font-size:99.99px;fill:#000000" text-anchor="middle">4,000</text>
	<line x1="3795.66" y1="2489.19" x2="3795.66" y2="2529.16" style="stroke:#000000;stroke-width:5.76"/>
	<text x="3795.66" y="2619.14" style="font-family:'Helvetica';font-size:99.99px;fill:#000000" text-anchor="middle">5,000</text>
	<text x="2124.91" y="2729.16" style="font-family:'Helvetica';font-size:99.99px;fill:#000000" text-anchor="middle">Weight (lbs.)</text>
</svg>
